<svg width="91" height="82" viewBox="0 0 91 82" fill="none" xmlns="http://www.w3.org/2000/svg">
<g clip-path="url(#clip0_154_140)">
<path fill-rule="evenodd" clip-rule="evenodd" d="M45.4997 6.83325C24.5583 6.83325 7.58301 22.1297 7.58301 40.9999C7.58301 59.8702 24.5583 75.1666 45.4997 75.1666C66.4411 75.1666 83.4163 59.8702 83.4163 40.9999C83.4163 22.1297 66.4411 6.83325 45.4997 6.83325ZM32.2288 32.4583C32.2288 30.8879 32.5721 29.3329 33.239 27.882C33.9059 26.4311 34.8835 25.1129 36.1158 24.0024C37.3481 22.892 38.8111 22.0112 40.4211 21.4102C42.0312 20.8092 43.7569 20.4999 45.4997 20.4999C47.2424 20.4999 48.9681 20.8092 50.5782 21.4102C52.1883 22.0112 53.6513 22.892 54.8836 24.0024C56.1159 25.1129 57.0934 26.4311 57.7603 27.882C58.4272 29.3329 58.7705 30.8879 58.7705 32.4583C58.7705 35.6298 57.3723 38.6715 54.8836 40.9141C52.3948 43.1567 49.0193 44.4166 45.4997 44.4166C41.98 44.4166 38.6045 43.1567 36.1158 40.9141C33.627 38.6715 32.2288 35.6298 32.2288 32.4583ZM69.2279 58.0286C66.3896 61.2458 62.7813 63.8436 58.6726 65.628C54.5638 67.4123 50.0607 68.3371 45.4997 68.3333C40.9386 68.3371 36.4356 67.4123 32.3268 65.628C28.218 63.8436 24.6097 61.2458 21.7714 58.0286C27.9177 54.055 36.3049 51.2499 45.4997 51.2499C54.6945 51.2499 63.0816 54.055 69.2279 58.0286Z" fill="#87255B"/>
</g>
<defs>
<clipPath id="clip0_154_140">
<rect width="91" height="82" fill="white"/>
</clipPath>
</defs>
</svg>
